<svg width="30" height="21" viewBox="0 0 30 21" fill="none" xmlns="http://www.w3.org/2000/svg">
<path fill-rule="evenodd" clip-rule="evenodd" d="M0 20V0H9.44C12.39 0 14.71 1.71 14.71 5.22C14.71 7.55 13.76 8.79 11.87 8.94C14.36 8.94 15.53 10.56 15.35 13.8C15.35 17.79 13.38 19.85 9.44 20H0ZM4.03 7.85H9.11C9.98 7.85 10.76 7.55 10.76 5.52C10.76 4.16 10.32 3.48 9.44 3.48H4.03V7.85ZM4.03 16.1H8.82C8.84751 16.1 8.87782 16.1009 8.91065 16.1019C8.98522 16.1042 9.07279 16.1069 9.17 16.1C9.94 16.09 11.4 15.85 11.4 13.56C11.4 11.75 10.75 10.85 9.44 10.87H4.03V16.1ZM29.7102 13.48H20.0702C20.0702 15.91 21.1602 17.05 23.3502 16.89C25.4102 16.89 26.4002 16.19 26.3302 14.79H29.6002C29.6002 18.51 27.4802 20.25 23.2402 19.99C18.1402 19.99 15.7602 17.5 16.0902 12.51C16.0802 7.49001 18.4702 4.98001 23.2402 4.98001C28.2602 4.98001 30.4102 7.82001 29.7102 13.48ZM26.1402 10.87C26.1702 8.86001 25.2302 7.85001 23.3102 7.85001C21.3902 7.85001 20.3002 8.86001 20.0302 10.87H26.1402ZM19.23 1.14999H26.91V2.99999H19.23V1.14999Z" fill="white"/>
</svg>
