<svg width="25" height="20" viewBox="0 0 25 20" fill="none" xmlns="http://www.w3.org/2000/svg">
<path d="M24.0385 1.92308H0.961538C0.430128 1.92308 0 1.49295 0 0.961538C0 0.430128 0.430128 0 0.961538 0H24.0385C24.5699 0 25 0.430128 25 0.961538C25 1.49295 24.5699 1.92308 24.0385 1.92308Z" fill="#3677FD"/>
<path d="M24.0385 10.5769H0.961538C0.430128 10.5769 0 10.1468 0 9.61541C0 9.084 0.430128 8.65387 0.961538 8.65387H24.0385C24.5699 8.65387 25 9.084 25 9.61541C25 10.1468 24.5699 10.5769 24.0385 10.5769Z" fill="#3677FD"/>
<path d="M24.0385 19.2308H0.961538C0.430128 19.2308 0 18.8006 0 18.2692C0 17.7378 0.430128 17.3077 0.961538 17.3077H24.0385C24.5699 17.3077 25 17.7378 25 18.2692C25 18.8006 24.5699 19.2308 24.0385 19.2308Z" fill="#3677FD"/>
</svg>
