<svg width="30" height="24" viewBox="0 0 30 24" fill="none" xmlns="http://www.w3.org/2000/svg">
<path d="M29.17 0.44C27.98 1.14 26.66 1.64 25.26 1.91C24.14 0.74 22.54 0 20.77 0C17.37 0 14.62 2.71 14.62 6.06C14.62 6.53 14.67 7 14.77 7.44C9.66 7.19 5.12 4.78 2.09 1.11C1.56 2 1.25 3.04 1.25 4.16C1.25 6.26 2.34 8.11 3.99 9.2C2.99 9.17 2.03 8.89 1.2 8.44V8.52C1.2 11.45 3.33 13.9 6.14 14.46C5.63 14.6 5.08 14.67 4.52 14.67C4.12 14.67 3.74 14.63 3.36 14.56C4.15 16.97 6.42 18.72 9.11 18.77C7 20.39 4.35 21.36 1.47 21.36C0.97 21.36 0.48 21.33 0 21.28C2.72 23 5.96 24 9.43 24C20.76 24 26.95 14.77 26.95 6.76C26.95 6.5 26.94 6.24 26.93 5.98C28.13 5.12 29.18 4.06 30 2.84C28.9 3.32 27.71 3.65 26.47 3.79C27.74 3.04 28.71 1.86 29.17 0.44Z" fill="white"/>
</svg>
